<?xml version="1.0" standalone="no"?><!DOCTYPE svg PUBLIC "-//W3C//DTD SVG 1.1//EN" "http://www.w3.org/Graphics/SVG/1.1/DTD/svg11.dtd"><svg t="1547872947618" class="icon" style="" viewBox="0 0 1024 1024" version="1.1" xmlns="http://www.w3.org/2000/svg" p-id="10093" xmlns:xlink="http://www.w3.org/1999/xlink" width="128" height="128"><defs><style type="text/css"></style></defs><path d="M876 96H200c-28.7 0-52 23.3-52 52v156h-26c-14.4 0-26 11.6-26 26s11.6 26 26 26h26v130h-26c-14.4 0-26 11.6-26 26s11.6 26 26 26h26v130h-26c-14.4 0-26 11.6-26 26s11.6 26 26 26h26v156c0 28.7 23.3 52 52 52h676c28.7 0 52-23.3 52-52V148c0-28.7-23.3-52-52-52z m0 780H200V720h26c14.4 0 26-11.6 26-26s-11.6-26-26-26h-26V538h26c14.4 0 26-11.6 26-26s-11.6-26-26-26h-26V356h26c14.4 0 26-11.6 26-26s-11.6-26-26-26h-26V148h676v728z" p-id="10094"></path><path d="M554.8 330c6 0 12.2 0.6 18.3 1.9 31.9 6.7 57.5 34.2 62.5 66.9 6 40.1-16.3 69-39.2 82.7-16.8 10-26.6 28.7-25.2 48.2 1.4 19.5 13.6 36.7 31.6 44.3 45.4 19.2 80.7 64.8 94.4 119.9H412.5c13.7-55.1 49-100.8 94.4-119.9 18.1-7.6 30.3-24.8 31.6-44.3 1.4-19.5-8.4-38.2-25.2-48.2-25.2-15-40.2-41.1-40.2-69.8 0-45 36.7-81.7 81.7-81.7m0-52c-73.9 0-133.7 59.9-133.7 133.7 0 48.8 26.5 91.1 65.5 114.4-68.7 29-120 100.3-130.4 187.1-2.1 17.4 11.7 32.7 29.2 32.7h338.7c17.5 0 31.3-15.4 29.2-32.7-10.3-86.7-61.6-158-130.3-187 44.5-26.6 72.6-77.7 64-135.1-8.1-53.9-49.9-98.9-103.2-110.1-9.8-2-19.5-3-29-3z" p-id="10095"></path></svg>